<?xml version="1.0" encoding="UTF-8"?>
<svg width="52px" height="52px" viewBox="0 0 52 52" version="1.1" xmlns="http://www.w3.org/2000/svg" xmlns:xlink="http://www.w3.org/1999/xlink">
    <!-- Generator: Sketch 47.1 (45422) - http://www.bohemiancoding.com/sketch -->
    <title>Up</title>
    <desc>Created with Sketch.</desc>
    <defs></defs>
    <g id="02-Category" stroke="none" stroke-width="1" fill="none" fill-rule="evenodd">
        <g id="Category-1440" transform="translate(-1294.000000, -1875.000000)" fill="#313131">
            <path d="M1320,1875 L1320,1875 C1334.3594,1875 1346,1886.6406 1346,1901 L1346,1901 C1346,1915.3594 1334.3594,1927 1320,1927 C1305.6406,1927 1294,1915.3594 1294,1901 L1294,1901 L1294,1901 C1294,1886.6406 1305.6406,1875 1320,1875 L1320,1875 Z M1308.61986,1904.95977 C1308.36469,1905.21612 1308.25,1905.54263 1308.25,1905.86643 C1308.25,1906.23072 1308.42203,1906.6004 1308.73455,1906.86754 C1309.31085,1907.36404 1310.22834,1907.32357 1310.74443,1906.7704 L1320.00538,1897.14522 L1329.26632,1906.7704 C1329.78241,1907.32357 1330.6999,1907.36404 1331.27047,1906.86754 C1331.87257,1906.36833 1331.90411,1905.51024 1331.38516,1904.95977 L1321.06336,1894.23095 C1320.80818,1893.94762 1320.40678,1893.78571 1320.00538,1893.78571 C1319.60397,1893.78571 1319.1997,1893.94762 1318.94453,1894.23095 L1308.61986,1904.95977 Z" id="Up"></path>
        </g>
    </g>
</svg>